<?xml version="1.0" encoding="UTF-8"?>
<svg width="101px" height="82px" viewBox="0 0 101 82" version="1.1" xmlns="http://www.w3.org/2000/svg" xmlns:xlink="http://www.w3.org/1999/xlink">
    <path fill="#00B0F0" d="M97.2088859,1.56102213 C95.6542172,6.37427737 92.6995311,10.0725679 88.4755876,12.7953358 C90.474897,12.5959693 92.4207008,12.1982375 94.3421838,11.67179 C96.2539385,11.1479167 98.1157641,10.481598 99.9775898,9.73404537 C99.9073457,9.84702922 99.8416796,9.96315946 99.7664283,10.0727109 C97.1154656,13.9221709 93.9144246,17.241179 90.1498572,20.0127158 C89.9023577,20.1949202 89.80579,20.3751223 89.817092,20.6856133 C89.8906265,22.6944377 89.8783231,24.703548 89.7362612,26.709512 C89.5053571,29.9680236 89.0125041,33.1876344 88.2381025,36.3611936 C86.114471,45.065384 82.3333084,52.9739678 76.7572737,59.9962719 C69.8777893,68.6598453 61.2194561,74.8276197 50.7150342,78.3653015 C47.5315899,79.437504 44.2724652,80.1967841 40.9511079,80.70135 C37.0816751,81.289009 33.1896384,81.5161209 29.2828661,81.3699569 C18.8485452,80.9798051 9.19706666,78.010904 0.334009858,72.4882818 C0.235725379,72.4270703 0.140731356,72.3605671 -4.29189863e-05,72.2673197 C0.21140462,72.1743583 0.38851697,72.229277 0.554041194,72.2461531 C2.16579219,72.4116244 3.78169203,72.490284 5.40102538,72.4546727 C14.4788202,72.2550202 22.6477339,69.4324261 29.8937464,63.9548544 C29.9664225,63.8997926 30.0370958,63.8418705 30.1049078,63.7810881 C30.1213601,63.7663572 30.1230768,63.7350364 30.1421042,63.6818339 C24.0975373,63.4036648 19.0409654,61.0457346 15.0487843,56.4879087 C13.2878183,54.4773682 11.2890811,50.8272746 11.1322838,49.4029629 C14.1805332,49.9624475 17.1964504,49.8644805 20.1821812,49.0495666 C14.4999935,47.7072039 10.0452889,44.6340431 6.93537914,39.6882106 C4.82905836,36.3385968 3.84850258,32.6570394 3.856228,28.6266621 C6.75182895,30.1972807 9.78047875,31.0568161 13.0873866,31.1903945 C7.14081802,26.8460938 4.02160916,21.0886368 4.03791838,13.750979 C4.04578686,10.204144 5.00559846,6.88813938 6.80547768,3.76849782 C14.2436241,12.7225398 23.4259982,19.0337608 34.4780664,22.5774493 C39.2440767,24.1055917 44.1338368,24.9739942 49.1785345,25.2238459 C49.1181618,24.9039156 49.0619379,24.6278918 49.014584,24.3504377 C47.9563448,18.154918 49.3095805,12.5477724 53.2442501,7.63640714 C56.4272652,3.66323692 60.5752421,1.16972614 65.597908,0.330356211 C72.5775366,-0.836094829 78.6593001,1.09321176 83.7602216,6.01473128 C84.1201688,6.36212087 84.4091567,6.46623764 84.9061585,6.35725828 C89.1572841,5.42464091 93.1680634,3.88405599 96.9344906,1.70546984 C97.0239051,1.65369749 97.1173254,1.60907602 97.2088859,1.56102213"></path>
</svg>
